name analog
datacolumns 19
datarows 23
range 0.5235 0.5345
endheader
time	ground_force_vx	ground_force_vy	ground_force_vz	ground_force_px	ground_force_py	ground_force_pz	l_ground_force_vx	l_ground_force_vy	l_ground_force_vz	l_ground_force_px	l_ground_force_py	l_ground_force_pz	ground_torque_x	ground_torque_y	ground_torque_z	l_ground_torque_x	l_ground_torque_y	l_ground_torque_z
0.5235	-0.0	-0.0	-0.0	0.6311651468276978	64.18057250976562	-449.2978515625	-7.076603889465332	-62.11077499389648	-425.2135009765625	-0.0	-0.0	-0.0	-0.0	-0.0	-0.0	59094.7734375	-99.92899322509766	-10818.51953125
0.524	-0.0	-0.0	-0.0	1.070526123046875	64.29768371582031	-450.8538818359375	-7.157889366149902	-62.5792350769043	-428.0598754882813	-0.0	-0.0	-0.0	-0.0	-0.0	-0.0	59249.7421875	-251.4286651611328	-10741.19140625
0.5245	-0.0	-0.0	-0.0	1.2360146045684814	64.71770477294922	-452.2853088378906	-7.014680862426758	-62.87013244628906	-428.1959228515625	-0.0	-0.0	-0.0	-0.0	-0.0	-0.0	59341.7109375	-345.8556823730469	-10757.1572265625
0.525	-0.0	-0.0	-0.0	1.277744174003601	65.02378845214844	-451.7672424316406	-6.5993733406066895	-63.143646240234375	-430.8279724121094	-0.0	-0.0	-0.0	-0.0	-0.0	-0.0	59648.49609375	-585.905029296875	-10736.8076171875
0.5255	-0.0	-0.0	-0.0	1.350635051727295	65.23722076416016	-452.63714599609375	-6.510788917541504	-63.244606018066406	-432.8735961914063	-0.0	-0.0	-0.0	-0.0	-0.0	-0.0	60112.9609375	-505.6449279785156	-10636.2060546875
0.526	-0.0	-0.0	-0.0	2.2120280265808105	65.14217376708984	-451.97406005859375	-6.422317028045654	-64.00435638427734	-433.7672119140625	-0.0	-0.0	-0.0	-0.0	-0.0	-0.0	60415.22265625	-791.5438842773438	-10658.46484375
0.5265	-0.0	-0.0	-0.0	2.497894287109375	65.13037872314453	-451.7408447265625	-6.416385173797607	-64.39254760742188	-436.69329833984375	-0.0	-0.0	-0.0	-0.0	-0.0	-0.0	60685.73828125	-763.4561767578125	-10670.3095703125
0.527	-0.0	-0.0	-0.0	1.784210205078125	65.26104736328125	-451.85888671875	-6.694696426391602	-64.71631622314453	-439.0698547363281	-0.0	-0.0	-0.0	-0.0	-0.0	-0.0	60828.390625	-813.2471923828125	-10589.482421875
0.5275	-0.0	-0.0	-0.0	1.647539734840393	65.61317443847656	-452.61138916015625	-7.061172008514404	-65.44636535644531	-438.534423828125	-0.0	-0.0	-0.0	-0.0	-0.0	-0.0	61110.24609375	-984.7078247070312	-10530.787109375
0.528	-0.0	-0.0	-0.0	2.188469648361206	65.73086547851562	-453.7375793457031	-7.221391201019287	-66.00629425048828	-440.1392211914063	-0.0	-0.0	-0.0	-0.0	-0.0	-0.0	61137.984375	-818.5320434570312	-10669.388671875
0.5285	-0.0	-0.0	-0.0	2.09370493888855	66.10936737060547	-455.7678527832031	-7.623575210571289	-65.81071472167969	-440.8148498535156	-0.0	-0.0	-0.0	-0.0	-0.0	-0.0	61189.43359375	-825.8530883789062	-10783.70703125
0.529	-0.0	-0.0	-0.0	1.9046730995178225	66.00373077392578	-456.6828002929688	-7.859019756317139	-66.43406677246094	-442.0472717285156	-0.0	-0.0	-0.0	-0.0	-0.0	-0.0	61445.7734375	-989.4974975585938	-10713.63671875
0.5295	-0.0	-0.0	-0.0	2.0098648071289062	66.49652862548828	-457.4717712402344	-7.535090446472168	-66.45941162109375	-443.0524291992188	-0.0	-0.0	-0.0	-0.0	-0.0	-0.0	61199.83203125	-1074.3330078125	-10750.2431640625
0.53	-0.0	-0.0	-0.0	1.6529425382614136	66.32829284667969	-458.6142578125	-7.884926795959473	-66.81278228759766	-443.6072998046875	-0.0	-0.0	-0.0	-0.0	-0.0	-0.0	61417.640625	-1110.34619140625	-10837.7119140625
0.5305	-0.0	-0.0	-0.0	1.883442997932434	66.35008239746094	-458.5744018554688	-7.717838287353516	-67.00464630126953	-442.3950805664063	-0.0	-0.0	-0.0	-0.0	-0.0	-0.0	61431.07421875	-892.785400390625	-10743.509765625
0.531	-0.0	-0.0	-0.0	1.6626152992248535	66.39238739013672	-459.4871215820313	-7.769633293151855	-67.17605590820312	-441.8220825195313	-0.0	-0.0	-0.0	-0.0	-0.0	-0.0	61261.95703125	-1107.6090087890625	-10717.3056640625
0.5315	-0.0	-0.0	-0.0	1.8734207153320312	66.6273422241211	-461.0670471191406	-7.951616287231445	-67.73316955566406	-443.2574462890625	-0.0	-0.0	-0.0	-0.0	-0.0	-0.0	61509.81640625	-1031.466064453125	-10734.7890625
0.532	-0.0	-0.0	-0.0	2.432396411895752	66.38359069824219	-460.6772766113281	-8.208105087280273	-67.91468811035156	-443.4411315917969	-0.0	-0.0	-0.0	-0.0	-0.0	-0.0	61512.7109375	-1262.71826171875	-10627.193359375
0.5325	-0.0	-0.0	-0.0	2.6718132495880127	66.26171112060547	-459.4871215820313	-7.713262557983398	-68.34732055664062	-443.7897033691406	-0.0	-0.0	-0.0	-0.0	-0.0	-0.0	61592.4765625	-1213.9576416015625	-10653.5791015625
0.533	-0.0	-0.0	-0.0	2.127974033355713	66.35540771484375	-458.61279296875	-7.274284362792969	-68.3102035522461	-445.1334228515625	-0.0	-0.0	-0.0	-0.0	-0.0	-0.0	61698.76171875	-1311.548828125	-10565.8662109375
0.5335	-0.0	-0.0	-0.0	2.234537363052368	66.91159057617188	-458.2425231933594	-6.84377908706665	-68.76492309570312	-446.9312133789063	-0.0	-0.0	-0.0	-0.0	-0.0	-0.0	62051.9375	-1345.376220703125	-10465.53125
0.534	-0.0	-0.0	-0.0	2.858850479125977	66.84780883789062	-460.4596252441406	-6.475887298583984	-69.19795989990234	-447.1134033203125	-0.0	-0.0	-0.0	-0.0	-0.0	-0.0	61837.09765625	-1499.3468017578125	-10422.9306640625
0.5345	-0.0	-0.0	-0.0	3.258179187774658	66.8597640991211	-461.9593505859375	-6.433566093444824	-68.85688018798828	-447.3112487792969	-0.0	-0.0	-0.0	-0.0	-0.0	-0.0	61787.0625	-1375.15673828125	-10390.3271484375
